<svg width="512" height="512" viewBox="0 0 512 512" fill="none" xmlns="http://www.w3.org/2000/svg">
<g clip-path="url(#clip0_47_9)">
<path d="M270.642 311.217C270.353 309.055 269.485 307.01 268.131 305.3C266.776 303.589 264.984 302.277 262.944 301.501C260.905 300.725 258.693 300.515 256.544 300.892C254.395 301.27 252.388 302.221 250.735 303.646C249.082 305.07 247.845 306.914 247.154 308.984C246.463 311.054 246.344 313.272 246.81 315.404C247.275 317.535 248.309 319.502 249.8 321.094C251.291 322.687 253.185 323.848 255.282 324.453C256.997 325.041 257.099 325.989 257.099 327.397C257.099 355.471 257.099 383.555 257.099 411.646C257.047 412.361 256.944 413.071 256.792 413.771L255.845 413.976C255.026 411.979 254.104 410.008 253.285 407.96C251.723 403.326 250.52 398.565 248.754 394.008C237.874 365.72 224.101 338.789 210.123 311.934C209.905 311.612 209.657 311.312 209.381 311.038V309.809C209.61 309.617 209.802 309.382 209.944 309.118C217.061 293.007 224.178 276.896 231.294 260.785C231.545 260.024 231.742 259.245 231.883 258.456L228.12 258.763V241.304L231.96 240.971V237.387C231.96 223.819 231.96 210.251 231.96 196.657C231.866 195.871 232.014 195.075 232.385 194.375C232.755 193.675 233.331 193.105 234.034 192.741C237.49 190.616 240.818 188.286 244.274 186.033H249.778C254.437 186.289 259.096 186.571 263.755 186.776C274.584 187.262 274.61 187.237 280.882 196.043C281.626 197.086 282.053 198.322 282.11 199.601C282.392 212.99 282.546 226.353 282.725 239.717C282.725 240.792 282.725 241.867 282.725 242.891L286.181 243.173C286.437 245.733 286.667 248.293 286.898 250.648V252.184C287.128 256.894 287.128 256.894 282.52 257.304C282.366 257.304 282.238 257.483 281.829 257.765C284.645 264.318 287.563 270.846 290.277 277.477C294.578 287.998 298.699 298.597 303.077 309.093C303.635 310.191 303.846 311.433 303.682 312.654C303.517 313.875 302.985 315.017 302.155 315.928C300.992 317.445 300.012 319.095 299.237 320.843C286.718 345.829 276.658 371.889 266.238 397.797C264.114 402.917 262.091 408.293 260.018 413.566H259.659V325.221L260.888 324.76" fill="#0EA5E9"/>
<path d="M59.493 52.7087C59.0585 64.6092 60.5365 76.5022 63.8706 87.9343C66.021 95.6143 68.4274 103.499 71.2946 110.974C74.0155 118.186 77.1262 125.245 80.613 132.12C85.376 141.667 91.3565 150.556 98.405 158.565C102.552 163.198 106.725 167.832 111.205 172.082C117.784 178.251 124.619 184.165 131.506 190.002C137.752 195.301 144.306 200.242 150.527 205.566C156.031 210.379 161.279 215.499 166.347 220.773C171.416 226.046 176.357 231.448 180.76 237.08C185.163 242.712 189.874 249.291 194.123 255.589C196.173 258.825 197.987 262.204 199.551 265.701C201.642 270.65 203.437 275.719 204.927 280.882C207.051 287.179 206.36 293.323 206.335 299.518C205.985 305.217 204.072 310.709 200.805 315.39C197.925 320.181 193.928 324.203 189.157 327.115C184.618 329.859 179.816 332.141 174.821 333.925C176.767 331.621 178.815 329.394 180.632 327.013C183.96 322.142 186.092 316.555 186.853 310.706C188.619 301.566 186.213 292.939 183.397 284.466C179.199 271.87 171.621 261.118 163.711 250.725C158.299 243.477 152.398 236.608 146.047 230.168C139.237 223.384 131.583 217.368 124.21 211.224C117.784 205.848 111.051 200.779 104.754 195.25C98.4562 189.72 91.6978 183.346 85.4514 177.125C80.5618 172.286 75.9026 167.192 71.4482 161.944C63.1131 152.042 56.7051 140.668 52.5554 128.408C48.3492 116.2 46.6088 103.278 47.4354 90.3919C47.8235 85.6082 48.8214 80.8938 50.405 76.3631C52.965 68.4271 56.0626 60.6703 58.9298 52.8367L59.493 52.7087Z" fill="#0EA5E9"/>
<path d="M24.6001 180.862C30.8721 187.646 36.5297 195.147 43.5697 201.01C50.6097 206.872 59.7233 211.787 67.9665 216.984C73.9569 220.747 80.0497 224.331 86.0913 228.018C92.8241 232.139 99.5569 236.158 106.264 240.408C112.408 244.402 118.424 248.6 124.389 252.875C130.354 257.15 135.678 261.221 141.208 265.675C143.077 267.109 145.637 268.568 144.51 271.589C138.904 268.056 133.298 264.216 127.41 260.888C120.65 256.977 113.685 253.43 106.546 250.264C97.9441 246.577 88.9329 243.889 80.2801 240.305C67.4801 234.981 54.6801 229.579 42.2129 223.538C37.0021 220.655 32.8625 216.165 30.4113 210.738C28.088 206.652 26.5022 202.189 25.7265 197.554C25.7265 197.298 24.9841 197.118 24.6001 196.914V180.862Z" fill="#0EA5E9"/>
<path d="M36.3506 106.213C36.9138 108.952 37.5538 111.665 38.0402 114.43C40.0683 125.326 43.3677 135.945 47.8706 146.072C52.0531 155.752 57.596 164.786 64.3314 172.901C69.3121 178.474 74.6847 183.684 80.4082 188.491C85.7586 193.253 91.5186 197.502 96.9458 202.161C104.754 208.869 112.562 215.601 119.986 222.641C125.746 227.992 131.071 233.829 136.575 239.435C138.12 241.139 139.752 242.762 141.464 244.299C142.693 245.184 143.606 246.44 144.067 247.883C144.527 249.326 144.513 250.878 144.024 252.312C141.08 249.905 138.239 247.525 135.32 245.272C130.471 241.153 125.404 237.299 120.139 233.726C108.287 226.43 96.0242 219.825 84.2994 212.555C72.1929 205.657 60.7745 197.616 50.2002 188.542C43.9448 183.441 38.6556 177.259 34.5842 170.289C32.1205 165.207 30.1489 159.901 28.6962 154.443C26.8786 148.222 28.1074 142.053 27.5186 135.909C27.1602 132.222 28.901 128.229 29.797 124.542C30.437 121.829 31.1282 119.115 31.9986 116.478C33.1506 113.073 34.5586 109.72 35.7618 106.238L36.3506 106.213Z" fill="#0EA5E9"/>
<path d="M144.715 285.592C141.464 284.338 138.238 282.878 134.91 281.829C127.691 279.55 120.498 277.17 113.176 275.378C105.035 273.398 96.8262 271.768 88.5489 270.488C82.0209 269.464 75.3137 269.49 68.7857 268.44C61.1057 267.211 52.8113 266.443 46.1809 261.502C40.6769 257.432 35.5569 253.029 33.6881 245.912C32.8718 243.489 31.9232 241.114 30.8465 238.795C30.6701 238.084 30.6011 237.351 30.6417 236.619C36.0433 238.514 41.2145 240.408 46.4369 242.174C52.5297 244.248 58.6737 246.245 64.7921 248.242L76.1329 251.954C81.2529 253.643 86.2193 255.282 91.2113 257.074C98.6609 259.787 106.162 262.424 113.483 265.496C119.576 268.056 125.515 271 131.403 274.021C135.37 276.074 139.208 278.365 142.898 280.882C144.126 281.726 144.69 283.595 145.458 284.978L144.715 285.592Z" fill="#0EA5E9"/>
<path d="M145.329 297.009C141.848 296.216 138.366 295.397 134.885 294.629C133.265 294.157 131.601 293.857 129.918 293.733C119.678 293.733 109.694 293.733 99.5823 293.733C96.6986 293.931 93.8274 294.281 90.9807 294.782C83.3007 295.653 75.8511 296.625 68.2735 297.342C61.5663 297.931 56.6255 294.373 52.3247 289.662C51.1215 288.382 50.1487 286.949 49.0223 285.617C47.8959 284.286 48.0239 283.057 50.0975 282.597C50.8043 282.532 51.5155 282.532 52.2223 282.597C63.8447 282.597 75.4927 282.264 87.0895 282.597C94.5964 282.949 102.071 283.805 109.464 285.157C117.308 286.548 125.075 288.343 132.734 290.533C137.155 292.161 141.465 294.077 145.637 296.267L145.329 297.009Z" fill="#0EA5E9"/>
<path d="M65.9443 310.193C71.9347 309.349 77.4643 308.427 83.0195 307.813C91.1859 306.891 99.3779 305.841 107.57 305.457C114.226 305.15 120.933 305.688 127.64 305.918C131.557 305.918 135.5 306.225 139.416 306.584C141.402 306.781 143.354 307.228 145.228 307.915C145.868 308.171 146.149 309.451 146.943 310.833C140.799 310.833 135.32 310.475 129.893 310.833C123.922 311.334 117.993 312.258 112.152 313.598C103.653 315.569 95.3075 318.181 86.8595 320.28C85.078 320.545 83.2598 320.414 81.5347 319.896C76.1941 318.704 71.2544 316.145 67.1987 312.472C66.7123 312.088 66.5331 311.371 65.9443 310.193Z" fill="#0EA5E9"/>
<path d="M87.5762 331.493C98.6354 328.011 108.645 324.427 118.859 321.713C127.154 319.537 135.448 316.849 144.255 317.592C145.202 317.592 146.149 317.899 147.096 318.027V318.923C145.735 319.603 144.312 320.152 142.847 320.561C132.607 322.533 123.467 327.217 114.2 331.697C110.297 333.799 106.13 335.366 101.81 336.357C99.2225 336.706 96.5894 336.449 94.1189 335.604C91.6484 334.76 89.4084 333.352 87.5762 331.493Z" fill="#0EA5E9"/>
<path d="M148.197 329.649C143.666 332.056 139.365 334.232 135.192 336.638C130.277 339.429 125.771 342.808 120.754 345.368C118.651 346.323 116.369 346.818 114.059 346.818C111.75 346.818 109.467 346.323 107.365 345.368C107.006 345.214 106.802 344.677 106.034 343.653C116.094 339.429 125.797 335.307 135.499 331.262C138.494 330.033 141.566 328.958 144.639 327.909C147.173 326.859 147.736 327.243 148.197 329.649Z" fill="#0EA5E9"/>
<path d="M149.707 337.688C149.349 338.942 149.4 340.658 148.581 341.4C144.396 345.442 139.893 349.14 135.115 352.459C132.555 354.046 129.074 353.765 125.771 353.714C132.427 346.597 140.568 341.861 148.811 337.176L149.707 337.688Z" fill="#0EA5E9"/>
<path d="M304.767 282.034C305.304 280.421 305.893 278.808 306.379 277.195C306.784 275.226 307.315 273.285 307.967 271.384C313.001 258.963 319.908 247.385 328.447 237.054C334.283 230.398 339.659 223.282 345.855 216.958C352.05 210.635 358.962 204.875 365.771 199.038C373.451 192.562 381.464 186.494 389.042 179.915C395.237 174.539 401.227 168.907 406.962 162.942C411.595 158.053 415.615 152.549 419.762 147.301C426.29 139.186 430.386 129.662 434.891 120.446C437.987 114.042 440.655 107.44 442.879 100.683C445.029 94.3088 446.13 87.6015 447.999 81.1759C450.844 71.1087 452.062 60.6516 451.608 50.2H452.223C455.295 58.8016 458.546 67.3264 461.387 76.0048C464.158 84.6944 464.79 93.9241 463.231 102.91C462.283 108.824 461.592 114.84 460.082 120.6C456.812 133.393 450.851 145.341 442.597 155.646C435.984 163.835 428.889 171.623 421.349 178.968C413.285 186.878 404.811 194.328 396.184 201.675C388.069 208.562 379.237 214.475 371.275 221.669C365.861 226.663 360.845 232.072 356.274 237.848C350.411 244.965 344.703 252.235 339.506 259.838C335.867 265.518 332.601 271.426 329.727 277.528C325.89 285.153 323.882 293.568 323.864 302.104C323.703 307.289 324.628 312.45 326.582 317.256C328.535 322.062 331.472 326.406 335.205 330.008C335.64 330.418 336.024 330.904 336.434 331.339L336.05 332.056C330.93 329.496 325.656 327.115 320.869 324.018C315.521 320.566 311.232 315.702 308.479 309.963C307.096 307.045 305.919 304.024 304.767 301.054V282.034Z" fill="#0EA5E9"/>
<path d="M475.391 103.269C476.824 107.416 478.104 110.949 479.256 114.61C479.819 116.325 480.152 118.091 480.613 119.73C481.535 123.365 482.738 126.974 483.301 130.661C483.787 133.81 483.301 137.061 483.608 140.261C483.999 148.212 482.388 156.134 478.923 163.301C475.169 172.064 469.153 179.671 461.49 185.342C455.679 189.797 450.175 194.661 444.184 198.859C437.477 203.518 430.437 207.768 423.397 211.941C411.339 219.083 398.539 225.048 387.429 233.726C381.362 238.462 375.397 243.275 369.509 248.062L368.306 248.882C367.795 247.601 367.681 246.196 367.978 244.85C368.274 243.504 368.968 242.277 369.97 241.33C374.962 236.568 379.416 231.09 384.434 226.482C392.489 218.887 400.707 211.471 409.087 204.235C418.507 196.094 428.594 188.696 437.631 180.197C444.515 173.805 450.493 166.501 455.397 158.488C460.828 149.629 465.233 140.182 468.53 130.328C470.885 123.211 472.063 115.71 473.803 108.414C474.162 106.904 474.725 105.419 475.391 103.269Z" fill="#0EA5E9"/>
<path d="M486.117 179.966C486.117 184.6 486.373 189.08 486.117 193.534C485.689 195.958 484.949 198.315 483.915 200.549C483.045 202.93 482.149 205.285 481.151 207.589C476.875 217.368 468.351 222.053 459.211 226.2C456.037 227.659 453.042 229.477 449.842 230.859C445.49 232.702 441.01 234.366 436.555 235.979C431.435 237.797 426.315 239.282 421.195 241.099C414.386 243.659 407.602 246.475 400.946 249.445C396.594 251.39 392.421 253.746 388.146 256.075C381.643 259.71 375.346 263.474 368.664 267.211C368.326 266.389 368.312 265.47 368.626 264.638C368.939 263.806 369.557 263.125 370.354 262.731C377.24 257.867 383.794 252.491 390.655 247.653C396.543 243.454 402.661 239.589 408.575 235.646C414.155 232.037 419.736 228.453 425.368 224.971C433.202 220.175 441.069 215.456 448.971 210.814C457.527 206.257 465.41 200.537 472.395 193.816L486.117 179.966Z" fill="#0EA5E9"/>
<path d="M480.767 234.11C480.353 236.369 479.771 238.594 479.026 240.766C477.875 244.109 476.273 247.279 474.264 250.187C468.325 257.662 461.029 262.987 451.096 264.293C443.416 265.24 435.915 266.648 428.312 267.902C417.304 269.72 406.194 271.154 395.314 273.586C387.634 275.326 379.954 278.398 372.427 280.882C371.122 281.317 369.867 281.803 368.613 282.264C367.794 279.038 369.304 277.272 372.12 275.838C377.599 273.022 382.719 269.464 388.299 266.981C396.722 263.218 405.451 260.12 414.053 256.741C418.379 255.051 422.68 253.31 427.058 251.826C432.69 249.906 438.399 248.242 444.056 246.45C450.661 244.325 457.291 242.251 463.871 240.05C469.375 238.232 474.853 236.21 480.767 234.11Z" fill="#0EA5E9"/>
<path d="M367.64 293.605C368.127 293.042 368.511 292.146 369.125 291.915C377.999 288.238 387.255 285.559 396.722 283.928C402.84 282.93 409.061 282.418 415.179 281.368C429.951 278.808 444.824 280.779 459.621 280.19C460.338 280.19 461.387 279.96 461.695 280.19C462.002 280.421 462.898 282.341 462.591 282.75C459.032 286.949 455.653 291.25 450.251 293.579C445.464 295.653 440.626 294.834 435.89 294.654C431.154 294.475 426.264 292.939 421.426 292.427C415.41 291.787 409.368 291.403 403.327 291.173C397.899 290.994 392.472 290.891 387.071 291.173C381.285 291.506 375.525 292.35 369.765 293.016C369.149 293.214 368.575 293.526 368.075 293.938L367.64 293.605Z" fill="#0EA5E9"/>
<path d="M366.923 308.376C366.078 306.302 366.923 305.253 368.664 304.92C371.788 304.255 374.952 303.794 378.136 303.538C385.219 302.937 392.331 302.757 399.435 303C408.139 303.589 416.946 302.744 425.573 305.15C430.69 306.191 435.874 306.867 441.086 307.173C442.341 307.326 443.646 307.685 446.002 308.171C443.525 310.416 440.908 312.503 438.168 314.418C435.814 315.87 433.209 316.868 430.488 317.362C427.684 317.794 424.823 317.672 422.066 317.003C415.384 315.416 408.933 312.907 402.226 311.627C392.677 309.81 383.102 307.506 373.221 308.35C371.096 308.53 368.971 308.376 366.923 308.376Z" fill="#0EA5E9"/>
<path d="M422.475 329.086C421.374 332.44 418.123 332.645 415.614 333.438C409.88 335.23 404.914 333.029 399.717 330.418C391.909 326.475 383.666 323.378 375.55 320.178C372.99 319.102 370.046 318.59 367.333 317.618C366.893 317.431 366.502 317.147 366.187 316.788C365.872 316.429 365.643 316.004 365.515 315.544C385.586 315.57 403.941 322.328 422.475 329.086Z" fill="#0EA5E9"/>
<path d="M363.928 327.448C363.928 326.91 363.928 326.296 364.159 325.707C364.28 325.365 364.426 325.031 364.594 324.709C378.519 328.766 391.955 334.347 404.658 341.349C403.762 343.909 401.304 343.499 399.538 343.909C394.125 344.43 388.718 342.854 384.434 339.506C379.186 336.075 373.631 333.054 368.203 329.88C366.821 329.061 365.413 328.37 363.928 327.448Z" fill="#0EA5E9"/>
<path d="M386.277 350.77C383.484 351.596 380.514 351.611 377.712 350.813C374.911 350.015 372.395 348.438 370.456 346.264C368.05 343.934 365.336 341.886 363.186 339.378C362.493 338.011 362.268 336.455 362.546 334.949C371.011 339.338 378.969 344.643 386.277 350.77Z" fill="#0EA5E9"/>
<path d="M144.408 239.998C144.587 235.723 145.048 231.448 144.894 227.198C144.715 226.014 144.979 224.806 145.636 223.805C146.293 222.803 147.296 222.079 148.453 221.771C159.333 217.394 170.11 212.786 181.042 208.51C195.07 203.032 209.202 197.784 223.333 192.434C224.254 192.075 225.227 191.819 227.122 191.205C227.122 201.445 227.122 211.045 227.122 220.722C227.122 221.464 225.739 222.539 224.792 222.898C210.302 228.427 195.813 233.854 181.272 239.307C180.146 239.742 178.968 240.126 177.842 240.587C171.493 243.147 170.162 245.144 170.162 251.877C170.162 265.752 170.162 279.627 170.162 293.502C170.162 316.542 172.722 339.173 181.912 360.574C192.869 385.995 211.224 404.786 234.597 418.917C241.842 423.269 249.573 426.802 257.022 430.821C257.989 431.388 259.089 431.687 260.21 431.687C261.33 431.687 262.43 431.388 263.397 430.821C280.319 423.224 295.485 412.207 307.941 398.462C325.298 379.032 335.691 356.094 341.579 330.955C347.959 302.495 349.224 273.126 345.317 244.222C345.285 243.274 344.945 242.362 344.35 241.623C343.754 240.884 342.934 240.359 342.014 240.126C324.581 233.829 307.198 227.326 289.739 221.054C287.589 220.261 286.77 219.39 286.898 216.933C287.307 209.611 287.333 202.238 287.512 194.891C287.512 194.098 287.512 193.304 287.666 191.742C293.605 193.534 299.339 194.84 304.792 196.862C312.088 199.704 319.051 203.314 326.296 206.283C338.464 211.267 350.684 216.097 362.955 220.773C364.001 221.024 364.924 221.638 365.562 222.504C366.199 223.371 366.509 224.435 366.437 225.509C368.377 251.191 368.694 276.971 367.384 302.693C366.298 323.089 362.475 343.246 356.018 362.622C344.6 395.902 323.147 421.502 294.04 440.779C283.339 447.845 271.691 453.451 260.76 460.03C259.644 460.795 258.308 461.171 256.957 461.101C255.607 461.032 254.316 460.521 253.285 459.646C234.257 448.662 216.226 436.036 199.397 421.912C172.902 399.1 155.35 367.635 149.861 333.106C147.013 316.176 145.362 299.067 144.92 281.906C144.92 279.346 144.562 276.786 144.382 274.226L144.408 239.998Z" fill="#0EA5E9"/>
</g>
<defs>
<clipPath id="clip0_47_9">
<rect width="463" height="412" fill="white" transform="translate(24 50)"/>
</clipPath>
</defs>
</svg>
